<svg id="Layer_1" data-name="Layer 1" xmlns="http://www.w3.org/2000/svg" viewBox="0 0 536.046 175.903">
  <defs>
    <style>
      .cls-1 {
        fill: #fff;
      }

      .cls-2 {
        fill: #808082;
      }
    </style>
  </defs>
  <title>web wite logo</title>
  <g>
    <path class="cls-1" d="M36.7,46.38,19.819,29.5a2.207,2.207,0,0,0-3.768,1.561V76.883a2.207,2.207,0,0,1-2.207,2.207H8.916a2.207,2.207,0,0,1-2.207-2.207V8.345a2.207,2.207,0,0,1,3.77-1.558l26.22,26.3a2.207,2.207,0,0,0,3.129,0L65.945,6.8a2.207,2.207,0,0,1,3.773,1.556v6.92a2.207,2.207,0,0,1-.639,1.553L39.826,46.373A2.207,2.207,0,0,1,36.7,46.38Z" transform="translate(-5.609 -3.004)"/>
    <path class="cls-2" d="M60.395,76.636V39.93a2.452,2.452,0,0,1,.719-1.735l6.006-6a1.533,1.533,0,0,1,2.617,1.085V76.636a2.452,2.452,0,0,1-2.452,2.452H62.847A2.452,2.452,0,0,1,60.395,76.636Z" transform="translate(-5.609 -3.004)"/>
    <path class="cls-1" d="M508.634,146.192l-16.878-16.878a2.207,2.207,0,0,0-3.768,1.561v45.819a2.207,2.207,0,0,1-2.207,2.207h-4.928a2.207,2.207,0,0,1-2.207-2.207V108.157a2.207,2.207,0,0,1,3.77-1.558l26.22,26.3a2.207,2.207,0,0,0,3.129,0l26.116-26.287a2.207,2.207,0,0,1,3.773,1.556v6.92a2.207,2.207,0,0,1-.639,1.553l-29.253,29.543A2.207,2.207,0,0,1,508.634,146.192Z" transform="translate(-5.609 -3.004)"/>
    <rect class="cls-2" x="84.157" width="50.552" height="9.337" rx="2.281" ry="2.281"/>
    <path class="cls-1" d="M101.389,69.748h36.648a2.281,2.281,0,0,1,2.281,2.281v4.781a2.281,2.281,0,0,1-2.281,2.281H92.047a2.281,2.281,0,0,1-2.281-2.281V23.97a2.281,2.281,0,0,1,2.281-2.281h4.781a2.281,2.281,0,0,1,2.281,2.281V34.143a2.281,2.281,0,0,0,2.281,2.281h16.3a2.281,2.281,0,0,1,2.281,2.281v4.785a2.281,2.281,0,0,1-2.281,2.281h-16.3a2.281,2.281,0,0,0-2.281,2.281V67.467A2.281,2.281,0,0,0,101.389,69.748Z" transform="translate(-5.609 -3.004)"/>
    <rect class="cls-2" x="406.177" y="99.786" width="50.552" height="9.337" rx="2.281" ry="2.281"/>
    <path class="cls-1" d="M423.409,169.534h36.648a2.281,2.281,0,0,1,2.281,2.281V176.6a2.281,2.281,0,0,1-2.281,2.281H414.067a2.281,2.281,0,0,1-2.281-2.281V123.756a2.281,2.281,0,0,1,2.281-2.281h4.781a2.281,2.281,0,0,1,2.281,2.281V133.93a2.281,2.281,0,0,0,2.281,2.281h16.3a2.281,2.281,0,0,1,2.281,2.281v4.785a2.281,2.281,0,0,1-2.281,2.281h-16.3a2.281,2.281,0,0,0-2.281,2.281v19.414A2.281,2.281,0,0,0,423.409,169.534Z" transform="translate(-5.609 -3.004)"/>
    <rect class="cls-1" x="150.601" width="9.34" height="57.401" rx="2.499" ry="2.499"/>
    <rect class="cls-2" x="150.601" y="66.743" width="50.552" height="9.342" rx="2.499" ry="2.499"/>
    <rect class="cls-1" x="216.84" width="9.342" height="76.086" rx="3.061" ry="3.061"/>
    <rect class="cls-1" x="65.954" y="99.817" width="9.342" height="76.086" rx="3.061" ry="3.061"/>
    <rect class="cls-1" x="161.053" y="99.786" width="9.342" height="76.086" rx="3.061" ry="3.061"/>
    <path class="cls-1" d="M271.135,12.342a11.94,11.94,0,0,0-11.94,11.94v.208a11.941,11.941,0,0,0,11.94,11.935H275.7A21.983,21.983,0,0,1,288.989,41.1a21.077,21.077,0,0,1,7.889,16.5v.212A21.277,21.277,0,0,1,275.6,79.09H252.85a2.993,2.993,0,0,1-2.993-2.993V72.74a2.993,2.993,0,0,1,2.993-2.993H275.7a11.94,11.94,0,0,0,11.94-11.94V57.6A11.941,11.941,0,0,0,275.7,45.665H270.72c-11.727-.415-20.862-9.55-20.862-21.176v-.208A21.277,21.277,0,0,1,271.135,3h22.751A2.993,2.993,0,0,1,296.878,6V9.349a2.993,2.993,0,0,1-2.993,2.993Z" transform="translate(-5.609 -3.004)"/>
    <path class="cls-1" d="M335.923,12.342a11.94,11.94,0,0,0-11.94,11.94v.208a11.941,11.941,0,0,0,11.94,11.935h4.567A21.983,21.983,0,0,1,353.777,41.1a21.092,21.092,0,0,1,7.889,16.5v.212A21.277,21.277,0,0,1,340.389,79.09H317.857a3.217,3.217,0,0,1-3.217-3.217V72.964a3.217,3.217,0,0,1,3.217-3.217H340.49a11.935,11.935,0,0,0,11.935-11.935V57.6A11.936,11.936,0,0,0,340.49,45.665h-4.983c-11.732-.415-20.867-9.55-20.867-21.176v-.208A21.277,21.277,0,0,1,335.918,3h22.531a3.217,3.217,0,0,1,3.217,3.217v2.9a3.217,3.217,0,0,1-3.217,3.217Z" transform="translate(-5.609 -3.004)"/>
    <path class="cls-1" d="M411.917,25.112l-24.689,53.04a1.622,1.622,0,0,1-1.471.938h-6.693a1.622,1.622,0,0,1-1.47-2.308l29.234-62.673,3.628-7.917a1.622,1.622,0,0,1,2.944-.011l3.38,7.238a1.622,1.622,0,0,1,0,1.378Z" transform="translate(-5.609 -3.004)"/>
    <path class="cls-2" d="M436.5,78.149,417.417,36.9a1.622,1.622,0,0,1,0-1.362l3.3-7.149a1.622,1.622,0,0,1,2.944,0l22.474,48.4a1.622,1.622,0,0,1-1.471,2.305h-6.7A1.622,1.622,0,0,1,436.5,78.149Z" transform="translate(-5.609 -3.004)"/>
    <path class="cls-1" d="M298.063,124.925l-24.689,53.04a1.622,1.622,0,0,1-1.471.938H265.21a1.622,1.622,0,0,1-1.47-2.308l29.234-62.673L296.6,106a1.622,1.622,0,0,1,2.944-.011l3.38,7.238a1.622,1.622,0,0,1,0,1.378Z" transform="translate(-5.609 -3.004)"/>
    <path class="cls-2" d="M322.642,177.961l-19.079-41.247a1.622,1.622,0,0,1,0-1.362l3.3-7.149a1.622,1.622,0,0,1,2.944,0l22.474,48.4a1.622,1.622,0,0,1-1.471,2.305h-6.7A1.622,1.622,0,0,1,322.642,177.961Z" transform="translate(-5.609 -3.004)"/>
    <path class="cls-1" d="M147.583,124.077v1.156a20.4,20.4,0,0,1-20.342,20.342H111.81a1.92,1.92,0,0,0-1.92,1.92v29.492a1.92,1.92,0,0,1-1.92,1.92h-5.511a1.92,1.92,0,0,1-1.92-1.92V138.144a1.92,1.92,0,0,1,1.92-1.92h23.833a11.945,11.945,0,0,0,11.945-11.94v-1.156a11,11,0,0,0-11-11H102.459a1.92,1.92,0,0,1-1.92-1.92v-5.5a1.92,1.92,0,0,1,1.92-1.92h23.833A21.386,21.386,0,0,1,147.583,124.077Z" transform="translate(-5.609 -3.004)"/>
    <path class="cls-2" d="M133.924,155.72l11.847,20.91a1.525,1.525,0,0,1-1.327,2.277h-7.062a1.92,1.92,0,0,1-1.672-.976l-11.378-20.138a1.92,1.92,0,0,1,1.616-2.864l6.25-.182A1.92,1.92,0,0,1,133.924,155.72Z" transform="translate(-5.609 -3.004)"/>
    <path class="cls-1" d="M248.044,102.892h-7.17a1.7,1.7,0,0,0-1.392.725l-29.746,47.72a1.263,1.263,0,0,1-2.3-.724l-.057-46.023a1.7,1.7,0,0,0-1.7-1.7h-5.949a1.7,1.7,0,0,0-1.7,1.7l.057,69.3a3.223,3.223,0,0,0,5.863,1.848l45.48-70.172A1.7,1.7,0,0,0,248.044,102.892Z" transform="translate(-5.609 -3.004)"/>
    <path class="cls-2" d="M250.309,177.36l-18.6-26.521a1.7,1.7,0,0,0-2.773-.013l-3.621,5.066a1.7,1.7,0,0,0-.011,1.96l14.175,20.305a1.7,1.7,0,0,0,1.393.726h8.893a.885.885,0,0,0,.747-1.229l-.207-.295" transform="translate(-5.609 -3.004)"/>
    <path class="cls-1" d="M366.218,112.123a11.94,11.94,0,0,0-11.94,11.94v.208a11.941,11.941,0,0,0,11.94,11.935h4.567a21.983,21.983,0,0,1,13.287,4.674,21.077,21.077,0,0,1,7.889,16.5v.212a21.277,21.277,0,0,1-21.277,21.277H347.934a2.993,2.993,0,0,1-2.993-2.993v-3.357a2.993,2.993,0,0,1,2.993-2.993h22.852a11.94,11.94,0,0,0,11.94-11.94v-.208a11.941,11.941,0,0,0-11.94-11.935H365.8c-11.727-.415-20.862-9.55-20.862-21.176v-.208a21.277,21.277,0,0,1,21.277-21.277h22.751a2.993,2.993,0,0,1,2.993,2.993v3.352a2.993,2.993,0,0,1-2.993,2.993Z" transform="translate(-5.609 -3.004)"/>
    <path class="cls-2" d="M28.828,145.389H31.46A11.944,11.944,0,0,1,43.4,157.327h0a12.151,12.151,0,0,1-12.151,12.151H8.26a2.651,2.651,0,0,0-2.651,2.651v4.043a2.651,2.651,0,0,0,2.651,2.651H31.248a21.394,21.394,0,0,0,21.394-21.394v-.1a21.083,21.083,0,0,0-7.891-16.507,23.436,23.436,0,0,0-8.134-4.013,2.687,2.687,0,0,0-2.538.736l-6.089,6.09A1.045,1.045,0,0,0,28.828,145.389Z" transform="translate(-5.609 -3.004)"/>
    <path class="cls-1" d="M27.1,112.057H50.216a2.425,2.425,0,0,0,2.425-2.425v-4.489a2.425,2.425,0,0,0-2.425-2.425H27.1A21.491,21.491,0,0,0,5.609,124.208h0a20.746,20.746,0,0,0,8.809,17.043,2.4,2.4,0,0,0,3.063-.324l3.133-3.133A2.459,2.459,0,0,0,20.142,134a11.854,11.854,0,0,1-5.193-9.794h0A12.151,12.151,0,0,1,27.1,112.057Z" transform="translate(-5.609 -3.004)"/>
    <path class="cls-2" d="M532.311,176.433V139.727a2.452,2.452,0,0,1,.719-1.735l6.006-6a1.533,1.533,0,0,1,2.617,1.085v43.359a2.452,2.452,0,0,1-2.452,2.452h-4.437A2.452,2.452,0,0,1,532.311,176.433Z" transform="translate(-5.609 -3.004)"/>
  </g>
</svg>
